ply
format ascii 1.0
comment Created by Blender 2.78 (sub 0) - www.blender.org, source file: 'vertexpaint_test_cube.blend'
element vertex 20
property float x
property float y
property float z
property float nx
property float ny
property float nz
property float s
property float t
property uchar red
property uchar green
property uchar blue
element face 12
property list uchar uint vertex_indices
end_header
1.000000 -1.000000 -1.000000 0.577349 -0.577349 -0.577349 0.000000 0.000000 255 0 0
-1.000000 1.000000 -1.000000 -0.577349 0.577349 -0.577349 1.000000 1.000000 0 255 0
1.000000 1.000000 -1.000000 0.577349 0.577349 -0.577349 0.000000 1.000000 255 255 0
-1.000000 1.000000 1.000000 -0.577349 0.577349 0.577349 0.000000 1.000000 0 255 255
0.999999 -1.000001 1.000000 0.577349 -0.577349 0.577349 1.000000 0.000000 255 0 255
1.000000 0.999999 1.000000 0.577349 0.577349 0.577349 1.000000 1.000000 255 255 255
1.000000 1.000000 -1.000000 0.577349 0.577349 -0.577349 1.000000 0.000000 255 255 0
0.999999 -1.000001 1.000000 0.577349 -0.577349 0.577349 1.000000 1.000000 255 0 255
-1.000000 -1.000000 -1.000000 -0.577349 -0.577349 -0.577349 0.000000 0.000000 0 0 0
1.000000 -1.000000 -1.000000 0.577349 -0.577349 -0.577349 1.000000 0.000000 255 0 0
-1.000000 -1.000000 1.000000 -0.577349 -0.577349 0.577349 1.000000 1.000000 0 0 255
-1.000000 1.000000 -1.000000 -0.577349 0.577349 -0.577349 0.000000 0.000000 0 255 0
-1.000000 -1.000000 -1.000000 -0.577349 -0.577349 -0.577349 1.000000 0.000000 0 0 0
1.000000 1.000000 -1.000000 0.577349 0.577349 -0.577349 0.000000 0.000000 255 255 0
-1.000000 1.000000 1.000000 -0.577349 0.577349 0.577349 1.000000 1.000000 0 255 255
1.000000 0.999999 1.000000 0.577349 0.577349 0.577349 0.000000 1.000000 255 255 255
-1.000000 -1.000000 1.000000 -0.577349 -0.577349 0.577349 0.000000 0.000000 0 0 255
0.999999 -1.000001 1.000000 0.577349 -0.577349 0.577349 0.000000 1.000000 255 0 255
-1.000000 -1.000000 1.000000 -0.577349 -0.577349 0.577349 0.000000 1.000000 0 0 255
-1.000000 1.000000 -1.000000 -0.577349 0.577349 -0.577349 1.000000 0.000000 0 255 0
3 0 1 2
3 3 4 5
3 5 0 6
3 7 8 9
3 10 11 12
3 13 14 15
3 0 12 1
3 3 16 4
3 5 17 0
3 7 18 8
3 10 3 11
3 13 19 14
