ply
format ascii 1.0
comment Created by Blender 2.78 (sub 0) - www.blender.org, source file: 'vertexpaint_test_suzanne.blend'
element vertex 194
property float x
property float y
property float z
property float nx
property float ny
property float nz
property uchar red
property uchar green
property uchar blue
element face 286
property list uchar uint vertex_indices
end_header
-0.467091 0.308394 -0.722650 -0.567583 0.274636 -0.776116 196 167 137
-0.411605 0.129821 -0.750908 -0.338145 -0.414808 -0.844722 190 162 133
-0.633369 0.242105 -0.507944 -0.813105 -0.016175 -0.581866 196 167 137
0.411605 0.129821 -0.750908 0.339702 -0.413923 -0.844539 196 167 137
0.466618 0.309081 -0.722667 0.564867 0.277322 -0.777154 196 167 137
0.633263 0.242030 -0.507901 0.812922 -0.016175 -0.582110 196 167 137
-0.348823 -0.039891 -0.571443 -0.110050 -0.756096 -0.645100 196 167 137
-0.546875 0.054688 -0.520289 -0.671773 -0.491501 -0.554155 196 167 137
0.348823 -0.039891 -0.571443 0.110416 -0.756615 -0.644429 130 116 102
0.546875 0.054688 -0.520289 0.671926 -0.491287 -0.554186 196 167 137
-0.243436 0.183277 -0.766280 0.348888 -0.248238 -0.903653 196 167 137
0.243136 0.183167 -0.766830 -0.348491 -0.249001 -0.903623 196 167 137
-0.065623 0.241473 -0.612105 0.683645 0.010651 -0.729698 196 167 137
-0.156250 0.054688 -0.595177 0.453871 -0.585742 -0.671468 196 167 137
-0.296268 0.364523 -0.762055 0.106021 0.466689 -0.878018 196 167 137
0.293751 0.363527 -0.762165 -0.113559 0.464492 -0.878262 196 167 137
0.066086 0.241075 -0.611718 -0.687918 0.009491 -0.725700 196 167 137
0.156250 0.437500 -0.595177 -0.475753 0.589404 -0.652852 196 167 137
0.351562 0.515625 -0.561894 0.167913 0.769616 -0.616016 196 167 137
-0.546875 0.437500 -0.520289 -0.619892 0.527451 -0.580920 196 167 137
-0.467091 0.308394 -0.722650 -0.567583 0.274636 -0.776116 194 165 135
-0.273289 -0.886184 -0.648504 -0.527635 -0.407697 -0.745201 128 79 61
-0.017284 -0.984477 -0.591458 -0.023316 -0.953246 -0.301279 128 79 61
-0.365799 -0.923413 -0.528840 -0.839167 -0.528672 -0.127354 128 79 61
0.248244 0.648821 -0.854577 -0.048677 0.314676 -0.947935 166 108 77
0.253433 0.768836 -0.748109 -0.148747 0.968535 -0.199377 184 131 89
0.730324 0.381592 -0.681374 0.495010 -0.061525 -0.866665 166 108 77
0.261609 0.481956 -0.761877 0.219764 -0.260933 -0.940001 130 71 34
0.006031 0.325982 -0.829469 0.019929 -0.061739 -0.997864 166 108 77
-0.109622 -0.127367 -0.784855 -0.368023 0.109806 -0.923276 166 109 77
-0.404942 -0.022652 -0.679367 -0.333262 -0.517747 -0.787927 166 108 77
-0.207694 0.152361 -0.750915 -0.147435 -0.086001 -0.985321 82 50 37
0.102173 0.130465 -0.742287 0.072085 -0.114444 -0.990783 130 71 34
-0.000310 -0.888852 -0.684626 -0.000824 -0.304758 -0.952391 128 79 61
0.272967 -0.886192 -0.649776 0.524125 -0.388592 -0.757775 128 79 61
-0.141460 -0.238190 -0.733421 -0.863155 -0.094028 -0.496048 166 109 77
-0.106373 -0.758092 -0.730323 -0.114200 -0.233497 -0.965606 128 79 61
-0.130492 -0.225592 -0.812825 -0.667257 -0.235694 -0.706504 79 49 38
0.130561 -0.226255 -0.812502 0.706656 -0.189581 -0.681631 77 48 37
0.091305 -0.118257 -0.792388 0.213294 0.231697 -0.949095 166 109 77
0.138343 -0.242680 -0.731990 0.866298 -0.063295 -0.495437 166 109 77
-0.011345 -0.157521 -0.822140 -0.026368 0.447279 -0.893979 79 49 38
-0.109622 -0.127367 -0.784855 -0.368023 0.109806 -0.923276 167 110 78
0.000000 -0.140625 -0.742188 -0.023225 0.592273 -0.805353 166 109 77
0.003510 -0.332462 -0.762465 0.018799 -0.237068 -0.971282 166 109 77
0.089271 -0.779666 -0.722493 0.061525 -0.257515 -0.964293 128 79 61
-0.053376 -0.801349 -0.643545 0.541002 -0.192297 -0.818720 107 45 36
0.026421 -0.819171 -0.636285 -0.427839 -0.044710 -0.902737 107 45 36
-0.611977 0.172832 -0.665211 -0.452345 -0.273263 -0.848903 130 71 34
-0.373829 0.086535 -0.728236 -0.116489 -0.373638 -0.920194 77 48 37
0.460760 0.120128 -0.707842 0.393445 -0.247200 -0.885464 82 50 37
0.539893 -0.002377 -0.638478 0.453719 -0.472579 -0.755486 166 108 77
0.374026 0.085633 -0.727129 -0.000305 -0.705283 -0.708914 77 48 37
0.543159 0.212734 -0.683209 0.225379 -0.167364 -0.959777 81 50 37
0.574115 0.365077 -0.686721 0.144047 -0.188360 -0.971465 130 71 34
0.412973 0.388532 -0.752534 0.361126 0.421796 -0.831660 78 49 37
-0.198150 0.304100 -0.760369 -0.260567 -0.068911 -0.962981 84 51 37
-0.293952 0.398592 -0.778324 0.236885 0.337016 -0.911191 78 49 37
-0.306832 0.476701 -0.752781 -0.173345 -0.188971 -0.966552 151 92 59
0.280962 0.396572 -0.770937 -0.037172 0.097079 -0.994568 78 48 37
-0.411560 0.390627 -0.752042 -0.362316 0.354442 -0.861995 110 63 35
-0.551672 0.288132 -0.675783 -0.053499 -0.156194 -0.986267 82 50 37
-0.572695 0.365439 -0.688196 -0.090548 -0.250649 -0.963805 130 71 34
0.546850 0.292564 -0.686891 0.214606 -0.078402 -0.973540 77 48 37
-0.546875 0.210938 -0.671875 -0.126041 0.041993 -0.991119 80 49 37
-0.460938 0.117188 -0.703125 0.387402 0.891446 0.234901 108 69 51
0.121205 0.483398 -0.607582 -0.473251 0.860744 -0.187353 152 94 60
0.000467 0.418818 -0.744456 0.015839 0.922422 -0.385784 166 108 77
-0.053740 0.428979 -0.616572 0.250252 0.936094 -0.247047 155 97 63
0.261462 0.709033 -0.606235 -0.211524 0.768639 0.603656 184 131 89
0.457458 0.528564 -0.474708 0.409040 0.909177 -0.077609 152 94 60
-0.795853 0.151428 -0.417778 -0.929106 -0.318217 -0.188360 184 131 89
-0.717463 0.403459 -0.312642 -0.857326 0.487350 -0.165685 184 131 89
-0.841731 0.416465 -0.572731 -0.916745 0.342418 -0.205603 184 131 89
-0.000282 -0.495311 -0.307091 0.060305 -0.640126 0.765893 167 115 81
-0.321192 -0.910612 -0.408725 -0.574389 -0.507859 0.641957 128 79 61
0.027229 -0.950352 -0.402103 0.013031 -0.723289 0.690420 128 79 61
0.214052 -0.410230 -0.341908 0.819361 -0.478286 0.315989 167 115 81
0.364485 -0.934935 -0.527463 0.819880 -0.556139 -0.135960 128 79 61
0.322199 -0.914282 -0.396656 0.569964 -0.468368 0.675069 128 79 61
-0.199753 -0.398234 -0.297475 -0.750084 -0.594043 0.290567 167 115 81
0.223717 -0.193371 -0.529801 0.745537 -0.467330 -0.475112 168 115 81
0.574942 -0.088264 -0.540223 0.561998 -0.814753 -0.142369 173 116 82
0.436074 -0.104066 -0.453043 0.512284 -0.858577 0.018891 173 116 82
-0.347695 -0.237654 0.431147 -0.482620 -0.770043 0.417188 167 115 81
0.000000 -0.382812 0.351562 0.028169 -0.937101 0.347819 167 115 81
0.011619 -0.075160 0.779360 0.015687 -0.499222 0.866298 184 131 89
-0.465608 0.900982 -0.152219 -0.430250 0.834132 -0.345073 184 131 89
0.000000 0.984375 0.078125 0.000946 0.999969 -0.004303 182 130 89
0.000000 0.898438 -0.289062 0.003510 0.821314 -0.570421 184 131 89
-0.459720 0.411020 0.709570 -0.483108 0.129063 0.865963 158 107 71
-0.770823 0.623203 0.342437 -0.794855 0.506638 0.333903 158 107 71
-0.833846 0.352238 0.391235 -0.368847 0.436171 0.820765 184 131 89
-0.781498 0.576058 -0.095848 -0.862728 0.423109 -0.276803 184 131 89
0.781498 0.576058 -0.095848 0.871181 0.384198 -0.305643 184 131 89
0.476077 0.899132 -0.128827 0.440046 0.838557 -0.321177 184 131 89
0.774117 0.618565 0.345925 0.786462 0.511307 0.346446 158 107 71
-0.053740 0.428979 -0.616572 0.250252 0.936094 -0.247047 158 107 71
-0.260303 0.708855 -0.607407 0.190558 0.769127 0.609973 172 116 77
-0.460237 0.527298 -0.472638 -0.395032 0.914090 -0.091433 152 94 60
0.121205 0.483398 -0.607582 -0.473251 0.860744 -0.187353 158 107 71
0.803836 0.161472 -0.420019 0.942259 -0.306101 -0.135594 184 131 89
0.711654 0.400774 -0.307327 0.880001 0.460555 -0.116092 184 131 89
0.795840 0.041023 -0.158112 0.881832 -0.452986 -0.130863 184 131 89
-0.838238 0.304138 0.194035 -0.961394 -0.018921 -0.274422 184 131 89
0.851212 0.363598 0.191879 0.944945 0.130100 -0.300211 184 131 89
-0.833846 0.352238 0.391235 -0.368847 0.436171 0.820765 173 115 83
-0.539567 -0.142898 0.158480 -0.460494 -0.887509 0.015748 184 131 89
-0.527753 -0.047276 -0.450400 -0.510483 -0.849849 0.130894 173 116 82
-0.814251 0.064879 -0.177529 -0.882107 -0.454024 -0.125309 184 131 89
0.223717 -0.193371 -0.529801 0.745537 -0.467330 -0.475112 174 117 82
-0.533910 0.047078 0.538381 -0.498520 -0.447798 0.742210 184 131 89
0.490828 0.417757 0.691108 0.506821 0.122196 0.853328 158 107 71
0.391690 -0.080613 0.564660 0.447462 -0.581469 0.679403 184 131 89
1.210536 0.485920 0.399701 0.301187 0.721671 -0.623249 173 118 82
1.363250 0.313430 0.444733 0.964721 0.040071 -0.260109 184 131 89
1.233435 0.252704 0.432477 0.142399 -0.057558 -0.988128 132 68 61
-1.234498 0.248681 0.433467 -0.030274 0.051302 -0.998199 150 90 70
-1.238196 0.056204 0.404615 -0.446974 -0.262246 -0.855220 164 106 76
-1.363280 0.310916 0.445376 -0.970061 0.065767 -0.233741 166 108 77
0.845118 -0.049599 0.146843 0.414167 0.128880 -0.900998 178 122 85
1.048997 -0.073373 0.319236 0.572222 -0.610767 -0.547227 166 108 77
0.637334 -0.131573 0.129306 0.476913 -0.863002 -0.166601 179 126 87
-1.142695 0.041631 0.458032 0.018342 0.380169 -0.924711 150 90 70
-1.037881 -0.075968 0.309556 -0.585650 -0.419477 -0.693564 166 109 77
-1.170774 0.345162 0.460286 -0.026307 -0.157567 -0.987152 165 107 76
-1.207696 0.489413 0.396355 -0.286660 0.738487 -0.610248 166 108 77
-0.709322 -0.014957 0.168345 -0.799402 -0.117924 -0.589068 184 131 89
0.637334 -0.131573 0.129306 0.476913 -0.863002 -0.166601 184 131 89
0.712712 0.004226 0.186871 0.876553 0.080691 -0.474441 184 131 89
-0.799217 -0.111136 0.120197 -0.377941 -0.320841 -0.868435 184 131 89
0.712712 0.004226 0.186871 0.876553 0.080691 -0.474441 178 123 84
-0.851778 -0.000411 0.293091 -0.403607 0.495834 -0.768883 177 123 85
0.849688 -0.002268 0.295795 0.278848 0.677908 -0.680166 147 86 68
0.795922 0.102855 0.308274 0.640767 -0.051393 -0.765984 130 66 60
0.980884 0.376460 0.258508 0.552507 -0.231849 -0.800592 174 118 82
-0.790779 0.104465 0.308961 -0.675253 -0.041169 -0.736412 130 66 60
-0.972471 0.311042 0.359196 -0.547868 -0.338176 -0.765130 130 66 60
-1.005483 0.430324 0.271337 -0.190924 0.559282 -0.806665 175 120 83
-0.851778 -0.000411 0.293091 -0.403607 0.495834 -0.768883 130 66 60
-1.059998 0.205557 0.380618 -0.361950 0.010498 -0.932127 130 66 60
1.074143 0.218953 0.386767 0.359050 0.039491 -0.932463 133 70 62
1.147014 0.048217 0.437880 0.305216 0.271401 -0.912778 134 70 62
1.170348 0.345691 0.460999 0.062014 -0.160497 -0.985076 132 68 61
0.957870 0.304972 0.342476 0.586535 -0.447493 -0.675039 130 66 60
-1.363280 0.310916 0.445376 -0.970061 0.065767 -0.233741 179 124 85
-1.227002 0.480829 0.552827 -0.214972 0.683950 0.697104 184 131 89
-1.207696 0.489413 0.396355 -0.286660 0.738487 -0.610248 181 128 87
-1.207696 0.489413 0.396355 -0.286660 0.738487 -0.610248 184 131 89
-1.005483 0.430324 0.271337 -0.190924 0.559282 -0.806665 184 131 89
0.831749 0.350337 0.387405 0.328745 0.388348 0.860866 184 131 89
1.223191 0.489490 0.551496 0.205145 0.704367 0.679525 180 126 86
1.315084 0.072190 0.487198 0.858180 -0.498764 0.121433 184 131 89
1.223191 0.489490 0.551496 0.205145 0.704367 0.679525 186 135 94
1.039062 -0.085938 0.492188 0.003937 -0.734306 0.678793 184 131 89
-1.363280 0.310916 0.445376 -0.970061 0.065767 -0.233741 184 131 89
-1.225087 -0.009861 0.547001 -0.403485 -0.621082 0.671865 184 131 89
-0.789062 -0.125000 0.328125 -0.054567 -0.871029 0.488144 184 131 89
0.156250 0.054688 -0.595177 -0.455855 -0.586322 -0.669607 139 123 105
-0.156250 0.437500 -0.595177 0.474136 0.588244 -0.655080 196 167 137
-0.351562 0.515625 -0.561894 -0.168401 0.770348 -0.614948 196 167 137
-0.223095 -0.182572 -0.537520 -0.758721 -0.489303 -0.429975 166 109 77
0.546875 0.437500 -0.520289 0.620533 0.527116 -0.580554 196 167 137
-0.582274 -0.083975 -0.538726 -0.552690 -0.819727 -0.150121 173 116 82
-0.701861 0.406364 -0.701875 -0.482986 0.055330 -0.873836 166 108 77
-0.795853 0.151428 -0.417778 -0.929106 -0.318217 -0.188360 182 128 88
-0.253604 0.768544 -0.746560 0.143559 0.970122 -0.195532 184 131 89
-0.252976 0.656178 -0.850654 0.041292 0.341838 -0.938841 169 111 79
0.852831 0.421193 -0.588270 0.909940 0.330271 -0.250801 168 110 78
0.196071 0.294624 -0.761091 0.188299 -0.136845 -0.972503 77 48 37
0.227140 0.134763 -0.760223 -0.105930 -0.501999 -0.858333 77 48 37
0.000467 0.418818 -0.744456 0.015839 0.922422 -0.385784 166 115 77
-0.611977 0.172832 -0.665211 -0.452345 -0.273263 -0.848903 184 131 89
-0.460938 0.117188 -0.703125 0.387402 0.891446 0.234901 184 131 89
-0.373829 0.086535 -0.728236 -0.116489 -0.373638 -0.920194 184 131 89
0.000467 0.418818 -0.744456 0.015839 0.922422 -0.385784 158 107 71
0.852831 0.421193 -0.588270 0.909940 0.330271 -0.250801 184 131 89
-0.223095 -0.182572 -0.537520 -0.758721 -0.489303 -0.429975 171 116 82
0.223717 -0.193371 -0.529801 0.745537 -0.467330 -0.475112 176 119 84
0.352624 -0.254787 0.249850 0.419324 -0.887112 0.192694 167 115 81
-0.453125 0.867188 0.382812 -0.411298 0.815058 0.407971 167 116 77
0.000000 0.562500 0.851562 0.000183 0.346751 0.937925 158 107 71
0.453125 0.867188 0.382812 0.408094 0.815790 0.409742 161 110 73
0.000000 0.898438 0.546875 -0.000336 0.831141 0.556017 158 107 71
0.738105 -0.086049 0.332369 0.177770 -0.791070 0.585284 184 131 89
1.315084 0.072190 0.487198 0.858180 -0.498764 0.121433 180 126 86
0.851212 0.363598 0.191879 0.944945 0.130100 -0.300211 183 130 88
-1.037881 -0.075968 0.309556 -0.585650 -0.419477 -0.693564 168 112 79
-1.005483 0.430324 0.271337 -0.190924 0.559282 -0.806665 171 116 81
0.980884 0.376460 0.258508 0.552507 -0.231849 -0.800592 170 112 80
-1.037881 -0.075968 0.309556 -0.585650 -0.419477 -0.693564 184 131 89
1.048997 -0.073373 0.319236 0.572222 -0.610767 -0.547227 184 131 89
1.039062 -0.085938 0.492188 0.003937 -0.734306 0.678793 181 129 88
-0.833846 0.352238 0.391235 -0.368847 0.436171 0.820765 184 130 89
3 0 1 2
3 3 4 5
3 1 6 7
3 8 3 9
3 1 10 6
3 11 3 8
3 12 13 10
3 10 14 12
3 15 11 16
3 15 16 17
3 15 17 18
3 2 19 20
3 1 14 10
3 11 15 3
3 1 0 14
3 15 4 3
3 21 22 23
3 24 25 26
3 27 28 24
3 26 27 24
3 29 30 31
3 31 32 29
3 33 22 21
3 22 33 34
3 35 36 21
3 29 37 35
3 38 39 40
3 41 42 43
3 39 41 43
3 40 44 38
3 41 44 37
3 44 41 38
3 43 42 32
3 39 43 32
3 45 46 36
3 45 47 46
3 30 48 49
3 50 51 52
3 53 51 50
3 27 54 55
3 56 57 58
3 27 55 59
3 60 61 62
3 54 53 63
3 48 64 65
3 66 67 68
3 25 69 70
3 71 72 73
3 74 75 76
3 74 76 77
3 76 78 79
3 23 75 80
3 79 78 77
3 75 74 80
3 81 82 83
3 84 85 86
3 87 88 89
3 90 91 92
3 87 93 91
3 94 95 96
3 97 98 99
3 69 100 70
3 68 99 66
3 101 102 103
3 104 91 93
3 96 105 94
3 91 104 106
3 84 107 80
3 108 107 109
3 83 77 110
3 111 90 92
3 112 86 113
3 114 115 116
3 117 118 119
3 120 121 122
3 118 123 124
3 125 117 126
3 107 127 109
3 128 103 129
3 130 127 107
3 122 131 120
3 109 127 104
3 130 132 127
3 133 120 131
3 105 134 129
3 105 135 134
3 103 105 129
3 136 137 138
3 139 140 136
3 136 140 137
3 123 140 139
3 141 142 133
3 140 123 117
3 125 140 117
3 141 143 116
3 137 140 125
3 143 141 144
3 145 146 147
3 148 146 149
3 105 150 151
3 152 153 154
3 146 155 156
3 152 115 153
3 92 157 111
3 2 1 7
3 9 3 5
3 6 10 13
3 158 11 8
3 16 11 158
3 14 159 12
3 14 160 159
3 18 4 15
3 21 161 35
3 5 4 162
3 34 78 22
3 110 34 40
3 30 161 163
3 81 51 82
3 48 73 164
3 163 48 30
3 163 165 48
3 51 101 82
3 26 101 51
3 164 166 167
3 167 67 28
3 25 168 26
3 24 67 25
3 28 58 167
3 58 164 167
3 26 53 54
3 26 54 27
3 48 164 62
3 31 28 32
3 39 32 51
3 28 27 169
3 40 45 44
3 32 28 169
3 36 33 21
3 33 45 34
3 36 44 45
3 32 52 51
3 35 37 44
3 37 29 41
3 38 41 39
3 161 29 35
3 40 39 110
3 33 46 47
3 33 36 46
3 47 45 33
3 170 32 169
3 31 30 49
3 48 61 64
3 58 60 62
3 169 27 59
3 58 57 60
3 55 54 63
3 98 171 166
3 172 173 174
3 160 0 19
3 100 25 175
3 99 73 72
3 166 99 98
3 70 176 25
3 75 22 76
3 101 168 102
3 71 163 108
3 83 82 101
3 76 22 78
3 85 113 86
3 77 76 79
3 177 23 80
3 77 78 178
3 177 108 163
3 111 84 86
3 80 85 84
3 74 179 85
3 86 90 111
3 165 108 109
3 103 83 101
3 180 88 87
3 112 181 86
3 95 89 88
3 88 182 95
3 90 183 180
3 183 112 182
3 93 99 72
3 112 150 96
3 90 180 91
3 96 182 112
3 180 87 91
3 96 95 182
3 94 70 95
3 89 99 87
3 89 70 66
3 93 109 104
3 71 109 72
3 102 105 103
3 122 83 103
3 96 150 105
3 179 77 83
3 80 108 161
3 113 150 112
3 184 179 122
3 185 116 115
3 84 111 107
3 114 135 186
3 126 117 119
3 132 187 123
3 142 185 121
3 188 125 126
3 120 142 121
3 117 123 118
3 143 114 116
3 143 189 114
3 141 134 144
3 136 127 139
3 133 131 134
3 104 127 136
3 104 136 138
3 134 135 144
3 142 120 133
3 157 190 130
3 141 116 142
3 191 184 122
3 92 156 157
3 118 124 156
3 192 191 152
3 118 156 145
3 115 114 151
3 114 105 151
3 149 146 92
3 150 154 153
3 157 107 111
3 104 138 193
3 18 162 4
3 21 23 161
3 110 78 34
3 30 29 161
3 81 39 51
3 48 165 73
3 26 176 101
3 164 73 166
3 167 166 67
3 24 28 67
3 28 56 58
3 58 62 164
3 26 51 53
3 31 56 28
3 40 34 45
3 36 35 44
3 32 170 52
3 48 62 61
3 98 97 171
3 160 14 0
3 100 69 25
3 99 166 73
3 70 102 176
3 75 23 22
3 85 179 113
3 80 74 85
3 74 77 179
3 86 181 90
3 180 183 88
3 88 183 182
3 90 181 183
3 183 181 112
3 93 87 99
3 94 102 70
3 89 66 99
3 89 95 70
3 93 72 109
3 102 94 105
3 122 179 83
3 80 107 108
3 113 184 150
3 184 113 179
3 185 142 116
3 132 130 187
3 188 137 125
3 143 144 189
3 141 133 134
3 157 156 190
3 191 192 184
3 92 146 156
3 150 184 154
3 157 130 107
