ply
format ascii 1.0
comment Created by Blender 2.78 (sub 0) - www.blender.org, source file: 'vertexpaint_test_supersimple.blend'
element vertex 16
property float x
property float y
property float z
property float nx
property float ny
property float nz
property float s
property float t
property uchar red
property uchar green
property uchar blue
element face 8
property list uchar uint vertex_indices
end_header
1.000000 0.000000 0.000000 1.000000 0.000000 0.000000 0.537271 0.312500 255 0 0
0.000000 0.000000 1.000000 0.000000 0.000000 1.000000 0.370705 0.601000 0 0 255
0.000000 -1.000000 0.000000 0.000000 -1.000000 0.000000 0.204140 0.312500 255 0 255
-1.000000 0.000000 0.000000 -1.000000 0.000000 0.000000 0.040336 0.687500 0 255 255
0.000000 -1.000000 0.000000 0.000000 -1.000000 0.000000 0.373467 0.687500 255 0 255
0.000000 0.000000 1.000000 0.000000 0.000000 1.000000 0.206902 0.976000 0 0 255
0.000000 1.000000 0.000000 0.000000 1.000000 0.000000 0.617943 0.312500 0 255 0
-1.000000 0.000000 0.000000 -1.000000 0.000000 0.000000 0.951074 0.312500 0 255 255
0.000000 0.000000 1.000000 0.000000 0.000000 1.000000 0.784509 0.601000 0 0 255
0.000000 0.000000 1.000000 0.000000 0.000000 1.000000 0.581902 0.976000 0 0 255
1.000000 0.000000 0.000000 1.000000 0.000000 0.000000 0.415336 0.687500 255 0 0
0.000000 1.000000 0.000000 0.000000 1.000000 0.000000 0.748467 0.687500 0 255 0
0.000000 0.000000 -1.000000 0.000000 0.000000 -1.000000 0.370705 0.024000 255 255 0
0.000000 0.000000 -1.000000 0.000000 0.000000 -1.000000 0.206902 0.399000 255 255 0
0.000000 0.000000 -1.000000 0.000000 0.000000 -1.000000 0.784509 0.024000 255 255 0
0.000000 0.000000 -1.000000 0.000000 0.000000 -1.000000 0.581902 0.399000 255 255 0
3 0 1 2
3 3 4 5
3 6 7 8
3 9 10 11
3 0 2 12
3 3 13 4
3 6 14 7
3 15 11 10
