# Blender v2.79 (sub 0) OBJ File: 'starchamber.blend'
# www.blender.org
o Cube_Cube.001
v -1.000000 0.000000 5.000000
v -1.000000 2.800000 5.000000
v -1.000000 0.000000 -5.000000
v -1.000000 2.800000 -5.000000
v 1.000000 0.000000 5.000000
v 1.000000 2.800000 5.000000
v 1.000000 0.000000 -5.000000
v 1.000000 2.800000 -5.000000
v -3.000000 7.000000 -5.000000
v -3.000000 0.000000 -5.000000
v 3.000000 0.000000 -5.000000
v 3.000000 7.000000 -5.000000
v -3.000000 7.000000 -15.000000
v -3.000000 0.000000 -15.000000
v 3.000000 0.000000 -15.000000
v 3.000000 7.000000 -15.000000
v -3.000000 0.000000 5.000000
v -3.000000 4.000000 5.000000
v 3.000000 4.000000 5.000000
v 3.000000 0.000000 5.000000
v -1.000000 0.000000 9.000000
v 1.000000 0.000000 9.000000
v -3.000000 0.000000 9.000000
v 3.000000 0.000000 9.000000
v 3.000000 4.000000 9.000000
v -3.000000 4.000000 9.000000
vt 0.031250 0.605469
vt 0.335938 0.691406
vt 0.031250 0.691406
vt 0.437500 0.285156
vt 0.316406 0.410156
vt 0.378906 0.285156
vt 0.335938 0.808594
vt 0.031250 0.726562
vt 0.335938 0.726562
vt 0.273438 0.851562
vt 0.332031 0.972656
vt 0.273438 0.937500
vt 0.968750 0.710938
vt 0.664062 0.652344
vt 0.968750 0.652344
vt 0.968750 0.812500
vt 0.664062 0.753906
vt 0.968750 0.753906
vt 0.496094 0.410156
vt 0.800781 0.589844
vt 0.496094 0.589844
vt 0.437500 0.199219
vt 0.316406 0.199219
vt 0.378906 0.199219
vt 0.015625 0.199219
vt 0.496094 0.199219
vt 0.800781 0.410156
vt 0.800781 0.199219
vt 0.984375 0.410156
vt 0.316406 0.136719
vt 0.316406 0.015625
vt 0.316406 0.074219
vt 0.015625 0.015625
vt 0.679688 0.972656
vt 0.742188 0.847656
vt 0.742188 0.972656
vt 0.210938 0.937500
vt 0.152344 0.851562
vt 0.210938 0.851562
vt 0.558594 0.972656
vt 0.617188 0.847656
vt 0.617188 0.972656
vt 0.152344 0.972656
vt 0.679688 0.847656
vt 0.789062 0.851562
vt 0.976562 0.976562
vt 0.789062 0.976562
vt 0.031250 0.851562
vt 0.457031 0.851562
vt 0.457031 0.972656
vt 0.335938 0.605469
vt 0.031250 0.808594
vt 0.332031 0.851562
vt 0.664062 0.710938
vt 0.664062 0.812500
vt 0.015625 0.410156
vt 0.984375 0.199219
vt 0.558594 0.847656
vt 0.976562 0.851562
vt 0.031250 0.972656
vn 1.0000 0.0000 0.0000
vn 0.0000 0.0000 -1.0000
vn -1.0000 0.0000 0.0000
vn 0.0000 0.0000 1.0000
vn 0.0000 1.0000 0.0000
vn 0.0000 -1.0000 0.0000
s off
f 1/1/1 4/2/1 2/3/1
f 4/4/2 12/5/2 8/6/2
f 7/7/3 6/8/3 8/9/3
f 5/10/4 19/11/4 6/12/4
f 3/13/5 5/14/5 7/15/5
f 8/16/6 2/17/6 4/18/6
f 9/19/6 16/20/6 12/21/6
f 3/22/2 9/19/2 4/4/2
f 8/6/2 11/23/2 7/24/2
f 12/5/3 15/25/3 11/23/3
f 10/26/1 13/27/1 9/19/1
f 14/28/4 16/29/4 13/27/4
f 11/23/5 15/25/5 7/30/5
f 10/31/5 3/32/5 14/33/5
f 7/30/5 14/33/5 3/32/5
f 5/34/5 24/35/5 20/36/5
f 2/37/4 17/38/4 1/39/4
f 17/40/5 21/41/5 1/42/5
f 6/12/4 18/43/4 2/37/4
f 1/42/5 22/44/5 5/34/5
f 18/45/6 25/46/6 26/47/6
f 18/43/1 23/48/1 17/38/1
f 19/11/3 24/49/3 25/50/3
f 1/1/1 3/51/1 4/2/1
f 4/4/2 9/19/2 12/5/2
f 7/7/3 5/52/3 6/8/3
f 5/10/4 20/53/4 19/11/4
f 3/13/5 1/54/5 5/14/5
f 8/16/6 6/55/6 2/17/6
f 9/19/6 13/27/6 16/20/6
f 3/22/2 10/26/2 9/19/2
f 8/6/2 12/5/2 11/23/2
f 12/5/3 16/56/3 15/25/3
f 10/26/1 14/28/1 13/27/1
f 14/28/4 15/57/4 16/29/4
f 7/30/5 15/25/5 14/33/5
f 5/34/5 22/44/5 24/35/5
f 2/37/4 18/43/4 17/38/4
f 17/40/5 23/58/5 21/41/5
f 6/12/4 19/11/4 18/43/4
f 1/42/5 21/41/5 22/44/5
f 18/45/6 19/59/6 25/46/6
f 18/43/1 26/60/1 23/48/1
f 19/11/3 20/53/3 24/49/3
